# xmcd
#
# Track frame offsets:
#	150
#	14371
#	21997
#	39048
#	47866
#	65676
#	78974
#	105211
#	119285
#
# Disc length: 1793 seconds
#
# Revision: 0
# Processed by: cddbd v1.5.2PL0 Copyright (c) Steve Scherf et al.
# Submitted via: dBpowerAMP V4.0
#
DISCID=6506ff09
DTITLE=Mojo Band - Mojo Band
DYEAR=1997
DGENRE=Blues
TTITLE0=Ain't That Lovin' You Babe
TTITLE1=Le Stomp à Nyny
TTITLE2=Honest I do
TTITLE3=It Ain't Your Business
TTITLE4=Hesitation Blues
TTITLE5=J'étais au Zydeco
TTITLE6=Keep On Tryin'
TTITLE7=Pick a Bale of Cotton
TTITLE8=Blue Arrow
EXTD=
EXTT0=
EXTT1=
EXTT2=
EXTT3=
EXTT4=
EXTT5=
EXTT6=
EXTT7=
EXTT8=
PLAYORDER=
